<?xml version="1.0" encoding="UTF-8"?>
<svg width="152px" height="101px" viewBox="0 0 152 101" version="1.1" xmlns="http://www.w3.org/2000/svg" xmlns:xlink="http://www.w3.org/1999/xlink">
    <title>编组</title>
    <g id="页面-1" stroke="none" stroke-width="1" fill="none" fill-rule="evenodd">
        <g id="Logo" transform="translate(-206, -149)" fill="#FFFFFF">
            <g id="编组" transform="translate(206.7504, 149.6316)">
                <path d="M70.4701021,5.64907334 C141.321042,-12.7182993 149.480406,18.0560663 150.272723,35.9278303 C150.800934,47.8423396 145.221406,57.6867925 133.534138,65.4611889 L150.272723,94.5257138 L119.143671,100.33096 L108.302832,71.4730841 L99.2304423,71.4730841 L98.2440517,100.33096 L69.1585916,100.33096 C70.032932,49.937386 70.4701021,18.3767571 70.4701021,5.64907334 Z M100.912298,23.4087481 C100.912298,27.7152765 100.574727,36.7019257 99.8995856,50.3686957 C112.600092,49.2512893 118.950346,44.478613 118.950346,36.050667 C118.950346,23.4087481 106.623616,22.8755337 100.912298,23.4087481 Z" id="R"></path>
                <polygon id="E" points="2.35444965 1.19850052 0 100.33096 59.0935187 100.33096 61.1972142 70.1433586 31.4788862 70.1433586 32.3611449 59.6954883 53.2727227 59.6954883 55.2332243 37.7043479 33.5297913 37.7043479 34.4424045 28.3413193 64.183322 27.4074388 66.0820888 1.19850052"></polygon>
            </g>
        </g>
    </g>
</svg>