<?xml version="1.0" encoding="UTF-8"?>
<svg width="153px" height="101px" viewBox="0 0 153 101" version="1.1" xmlns="http://www.w3.org/2000/svg" xmlns:xlink="http://www.w3.org/1999/xlink">
    <title>编组</title>
    <g id="页面-1" stroke="none" stroke-width="1" fill="none" fill-rule="evenodd">
        <g id="Logo" transform="translate(-32, -149)" fill="#000000">
            <g id="编组" transform="translate(32.909, 149.6316)">
                <polygon id="E" points="88.195858 1.19850052 85.8414084 100.33096 144.934927 100.33096 147.038623 70.1433586 117.320295 70.1433586 118.202553 59.6954883 139.114131 59.6954883 141.074633 37.7043479 119.3712 37.7043479 120.283813 28.3413193 150.02473 27.4074388 151.923497 1.19850052"></polygon>
                <path d="M1.31151052,5.64907334 C72.1624506,-12.7182993 80.3218145,18.0560663 81.1141315,35.9278303 C81.6423428,47.8423396 76.0628145,57.6867925 64.3755467,65.4611889 L81.1141315,94.5257138 L49.9850797,100.33096 L39.1442402,71.4730841 L30.0718507,71.4730841 L29.0854601,100.33096 L4.26325641e-14,100.33096 C0.87434035,49.937386 1.31151052,18.3767571 1.31151052,5.64907334 Z M31.7537062,23.4087481 C31.7537062,27.7152765 31.4161355,36.7019257 30.740994,50.3686957 C43.4415007,49.2512893 49.7917541,44.478613 49.7917541,36.050667 C49.7917541,23.4087481 37.465024,22.8755337 31.7537062,23.4087481 Z" id="R"></path>
            </g>
        </g>
    </g>
</svg>